<svg xmlns="http://www.w3.org/2000/svg" viewBox="0 0 450.46 508.58" width="450.46" height="508.58" role="img" aria-label="SME South Africa icon, v3, white">
<title>SME South Africa icon, v3, white</title>
<path fill="#FFFFFF" fill-rule="evenodd" d="M208.15 0.68C206.94 1.45 204.19 0.93 202.75 0.93C200.33 0.93 197.31 0.86 194.96 1.43C193.71 1.74 192.24 1.25 190.96 1.43C181.99 2.7 172.84 2.01 163.89 3.68C163.1 3.83 162.17 3.47 161.39 3.69C159.2 4.3 156.6 4.41 154.31 4.68C153.68 4.76 152.92 4.52 152.31 4.68C147.86 5.87 143.07 5.45 138.64 6.68C137.86 6.9 136.91 6.48 136.14 6.69C134.78 7.07 133.38 7.31 132.05 7.68C130.85 8.02 129.36 7.6 128.15 7.93C121.94 9.67 115.37 9.92 109.19 11.64C108.56 11.82 107.83 11.51 107.21 11.68C106.17 11.97 105.15 12.4 104.12 12.68C103.5 12.86 102.75 12.53 102.13 12.7C96.85 14.17 91.17 15.18 85.78 16.68C85.05 16.89 84.14 16.73 83.39 16.94C76.41 18.89 69.3 20.72 62.27 22.68C56.94 24.17 51.65 26.25 46.36 27.72C44.78 28.16 43.31 29.23 41.67 29.68C40.54 30 39.48 31.09 38.47 31.61C36.3 32.73 33.95 33.78 32.18 35.4C31.57 35.96 30.47 36.33 29.77 36.81C28.06 37.97 26.58 39.54 24.88 40.7C23.84 41.4 22.94 42.64 22.05 43.53C19.95 45.63 17.87 47.69 16.22 50.11C14.41 52.76 11.61 55.26 10.4 58.2C9.67 59.95 8.59 61.88 7.56 63.52C6.59 65.05 5.89 67.37 5.4 69.13C4.59 72.03 3.09 74.9 2.4 77.88C0.28 87 0.4 96.41 0.4 106.05C0.4 116.72 0.4 127.39 0.4 138.05C0.4 174.72 0.4 211.38 0.4 248.05C0.4 265.21 0.4 282.38 0.4 299.54C0.4 313.35 0 327.09 3.65 340.19C7.56 354.2 14.27 366.65 21.51 379.29C24.31 384.2 28.24 388.54 31.4 393.19C34.48 397.72 39.12 401.22 42.19 405.73C43.01 406.94 44.54 407.69 45.37 408.91C48.12 412.96 52.69 416.4 56.22 419.76C61.25 424.54 66.34 429.69 72.01 433.55C73.08 434.28 73.84 435.45 74.92 436.18C81.32 440.53 87.21 445.81 93.63 450.17C109.82 461.17 126.51 470.7 143.47 479.51C161.64 488.95 181.2 496.98 200.74 504.18C203.81 505.32 207.2 505.57 210.31 506.43C215.05 507.75 220.04 508.18 225.09 508.18C226.56 508.18 228.67 508.58 230.09 508.18C231.49 507.79 233.28 507.57 234.77 507.43C237.09 507.23 239.61 507.04 241.8 506.28C245.28 505.54 248.74 504.38 252.12 503.43C252.84 503.23 253.48 502.64 254.2 502.43C263.99 499.71 273.56 495.11 283.04 491.18C284.88 490.42 286.6 489.17 288.4 488.43C288.85 488.25 288.96 488.62 289.4 488.43C289.4 488.43 290.11 487.72 290.11 487.72C291.66 486.67 294.01 486.13 295.65 485.43C298.94 484.02 301.92 481.98 305.1 480.48C307.28 479.45 309.74 478.56 311.79 477.29C313.53 476.21 315.2 475.22 317.1 474.43C318.38 473.9 319.45 472.83 320.77 472.43C321.7 472.16 322.67 471.1 323.5 470.58C325.58 469.28 328 468.43 330.04 467.04C330.98 466.4 331.87 465.85 332.87 465.43C333.31 465.25 333.51 464.62 333.96 464.43C336.6 463.34 339.1 461.45 341.53 459.8C342.42 459.19 343.54 458.85 344.38 458.2C344.97 457.75 345.98 456.71 346.64 456.44C350.35 454.89 353.55 451.92 357.01 449.57C364.73 444.33 372.24 438.75 379.37 432.71C386.81 426.4 395.02 420.21 401.42 412.66C404.61 408.9 408.73 405.9 411.5 401.83C412.56 400.27 414.17 398.91 415.38 397.45C418.64 393.5 421.9 389.53 424.75 385.33C427.33 381.54 430.29 377.52 432.18 373.4C433.34 370.87 435.32 368.72 436.15 366.05C436.82 363.84 438.44 362.02 439.15 359.79C439.5 358.67 440.36 357.59 440.84 356.49C441.76 354.38 442.55 352.1 443.15 349.95C443.59 348.34 444.63 346.85 445.08 345.25C446.52 340.08 448.31 334.74 448.9 329.33C449.14 327.1 449.06 324.74 449.65 322.64C449.95 321.56 449.4 320.24 449.65 319.14C450.24 316.52 449.9 313.48 449.9 310.75C449.9 302.58 449.9 294.41 449.9 286.25C449.9 262.25 449.9 238.25 449.9 214.25C449.9 186.59 449.9 158.92 449.9 131.26C449.9 120.93 449.9 110.59 449.9 100.26C449.9 96.34 450.46 91.68 449.42 87.96C449.03 86.56 449.53 84.96 449.15 83.57C448.31 80.56 447.97 77.44 447.12 74.41C445.94 70.16 443.69 66.06 442.15 61.97C441.73 60.86 440.62 59.94 440.15 58.8C438.65 55.19 435.62 52.44 433.44 49.23C430.47 44.86 426.18 41.88 422.36 38.4C415.48 32.12 406.17 28.16 397.28 25.68C391.55 24.09 386.04 21.99 380.35 20.68C378.11 20.17 375.97 19.19 373.68 18.68C365.1 16.81 356.75 14.47 348.17 12.68C342.88 11.59 337.5 11.12 332.41 9.69C331.79 9.52 331.04 9.8 330.41 9.68C327.6 9.18 324.83 8.69 322.14 7.93C320.3 7.42 318.21 7.91 316.36 7.4C311.11 5.93 305.27 5.89 299.88 4.93C298.52 4.69 296.8 5.05 295.48 4.68C290.09 3.18 283.92 3.38 278.31 2.68C276.34 2.44 274.36 2.77 272.42 2.43C266.97 1.49 260.95 1.34 255.44 1.18C253.98 1.14 252.37 1.41 250.94 1.18C248.48 0.8 245.41 1.59 243.04 0.93C239.69 0 235.19 0.68 231.64 0.68C223.81 0.68 215.98 0.68 208.15 0.68ZM133.54 257.08C136.48 260.32 140.74 262.75 144.47 264.97C153.25 270.2 163.15 273.75 173.31 275.03C180.14 275.89 187.27 275.43 194.14 275.43C216.14 275.43 238.14 275.43 260.14 275.43C266.76 275.43 273.4 275.39 279.73 277.63C293.27 282.41 303.44 296.1 302.55 310.76C301.55 327.14 289.64 340.31 273.65 343.64C269.83 344.44 265.76 344.18 261.88 344.18C255.71 344.18 249.54 344.18 243.38 344.18C229.04 344.18 214.71 344.18 200.38 344.18C192.87 344.18 184.69 345.1 177.28 343.7C166.88 341.74 157.63 334.54 152.65 325.31C149.98 320.36 149.42 315.44 148.49 310.03C137.86 309.36 126.86 309.71 116.23 310.19C112.72 310.35 109.13 309.87 105.65 310.43C105.1 316.93 106.8 323.81 108.56 330.02C114.75 351.92 131.74 371.39 152.74 380.39C159.39 383.24 166.66 385.37 173.88 386.08C179.45 386.62 185.25 386.18 190.84 386.18C199.34 386.18 207.84 386.18 216.34 386.18C230.01 386.18 243.68 386.18 257.34 386.18C266.18 386.18 275.13 386.75 283.84 384.98C307.81 380.1 329.18 361.83 338.76 339.48C342.85 329.93 344.9 319.89 344.9 309.52C344.9 306.24 345.03 302.96 344.41 299.72C343.79 296.46 343.41 293.2 342.57 289.98C341.08 284.26 338.88 278.89 336.22 273.61C333.41 268.04 329.7 262.97 325.55 258.32C313.72 245.03 297.08 237.07 279.7 234.16C271.76 232.84 263.62 233.18 255.6 233.18C244.1 233.18 232.6 233.18 221.1 233.18C211.6 233.18 202.1 233.18 192.6 233.18C184.43 233.18 176.73 233.45 169.13 229.98C163.5 227.42 159.43 223.23 155.4 218.68C152.29 220.54 149.83 223.87 147.6 226.66C142.41 233.15 138.27 240.69 135.67 248.57C134.75 251.34 133.7 254.14 133.54 257.08ZM133.23 142.85C134.83 153.65 140.1 164.1 146.63 172.73C149.09 175.98 152.09 178.76 154.63 181.92C156.68 179.99 158.15 177.43 160.07 175.35C163.01 172.17 166.78 169.5 170.72 167.71C178.62 164.14 187.12 164.93 195.57 164.93C209.88 164.93 224.28 165.41 238.57 164.91C245.02 164.68 251.42 164.43 257.88 164.43C266.96 164.43 275.7 165.03 283.58 170.02C290.52 174.41 295.89 181.38 298.37 189.22C299.37 192.35 299.4 195.56 300.24 198.68C305.81 199.64 312 198.93 317.64 198.93C325.97 198.93 334.57 199.55 342.86 198.72C343.08 190.07 341.02 181.34 338.07 173.23C335.49 166.17 331.81 159.32 327.16 153.39C322.76 147.79 317.85 142.57 312.14 138.27C301.58 130.32 289.12 125.05 276.04 123.11C266.43 121.68 256.6 122.18 246.91 122.18C234.57 122.18 222.24 122.18 209.9 122.18C201.44 122.18 193.02 122.16 184.58 122.64C180.99 122.84 177.36 122.54 173.78 123.13C165 124.58 156.67 127.5 148.79 131.61C143.44 134.4 137.07 138.1 133.23 142.85ZM70.9 200.27C73.53 202.45 77.27 203.53 80.38 204.88C86.17 207.41 91.91 210 97.64 212.67C100.26 213.89 103.65 214.86 105.83 216.8C107.97 218.71 109.06 222.25 110.31 224.78C112.22 228.65 114.22 232.48 116.1 236.37C117.34 238.95 118.42 241.7 119.97 244.11C121.88 241.49 122.81 237.95 124.16 235C126.21 230.52 128.74 226.12 131.54 222.07C135.29 216.64 139.45 211.65 144.16 207.04C146.48 204.76 149.29 203.08 151.4 200.57C149.95 197.91 146.78 195.92 144.53 193.93C141.3 191.09 138.4 187.81 135.69 184.47C131.35 179.11 127.74 173.2 124.57 167.09C123.02 164.09 121.85 160.85 120.15 157.93C118.33 159.49 117.21 161.89 116.05 163.94C113.56 168.38 111.49 173.04 109.41 177.68C108.44 179.83 107.62 182.42 106.03 184.2C103.64 186.89 99.03 187.97 95.82 189.4C87.56 193.06 79.01 196.28 70.9 200.27Z"/>
</svg>
