<svg xmlns="http://www.w3.org/2000/svg" viewBox="0 0 329.75 380.74" width="329.75" height="380.74" role="img" aria-label="SME South Africa icon, v1">
<title>SME South Africa icon, v1</title>
<defs><linearGradient id="g1" x1="0" y1="0" x2="1" y2="0"><stop offset="0" stop-color="#DC183C"/><stop offset="1" stop-color="#592D3A"/></linearGradient><linearGradient id="g2" x1="0" y1="0" x2="1" y2="1"><stop offset="0" stop-color="#FF9900"/><stop offset="1" stop-color="#F3712B"/></linearGradient></defs>
<g transform="scale(1.000000)"><polygon points="164.51,0.0 0.0,94.98 0.0,171.4 164.43,266.34 279.5,200.24 296.62,190.44 296.62,228.43 164.82,304.53 143.5,292.49 66.38,247.75 66.38,324.14 162.52,379.65 165.24,380.74 329.75,285.76 329.75,95.31 165.08,190.38 66.64,133.55 165.44,76.51 186.25,88.24 230.74,114.16 296.76,76.04 166.26,0.7" fill="url(#g1)"/><polygon points="0.25,210.01 0.25,285.85 31.88,304.11 31.88,228.27" fill="url(#g2)"/><polygon points="132.34,133.24 165.1,152.15 179.25,144.24 197.88,133.26 165.1,114.33" fill="url(#g2)"/></g>
</svg>
